<?xml version="1.0" standalone="no"?>
<!DOCTYPE svg PUBLIC "-//W3C//DTD SVG 20010904//EN"
 "http://www.w3.org/TR/2001/REC-SVG-20010904/DTD/svg10.dtd">
<svg version="1.0" xmlns="http://www.w3.org/2000/svg"
 width="640.000000pt" height="640.000000pt" viewBox="0 0 640.000000 640.000000"
 preserveAspectRatio="xMidYMid meet">
<metadata>
Created by potrace 1.14, written by Peter Selinger 2001-2017
</metadata>
<g transform="translate(0.000000,640.000000) scale(0.100000,-0.100000)"
fill="#000000" stroke="none">
<path d="M3108 6303 l-3 -88 -30 -2 c-41 -2 -187 -12 -202 -12 -8 -1 -11 -25
-10 -78 2 -77 2 -78 27 -76 14 1 69 4 122 6 l98 5 0 -197 c-1 -108 -1 -221 0
-252 l0 -57 87 2 86 1 1 250 1 250 85 -2 c47 -2 101 -5 121 -7 l36 -5 0 79 c1
44 0 80 -1 80 0 1 -44 3 -96 6 -160 9 -145 0 -147 80 -1 38 -2 77 -2 87 -1 15
-12 17 -86 17 l-84 0 -3 -87z"/>
<path d="M1979 6014 c-205 -38 -448 -209 -425 -299 17 -68 160 -26 354 102
100 66 217 176 209 197 -7 16 -48 17 -138 0z"/>
<path d="M4285 6021 c-23 -39 173 -201 347 -285 51 -25 114 -49 140 -52 42 -6
47 -4 64 21 17 26 17 28 -1 62 -63 116 -292 238 -488 259 -36 4 -57 2 -62 -5z"/>
<path d="M4963 5909 c-18 -18 57 -186 140 -312 47 -71 152 -184 207 -222 35
-24 44 -26 65 -17 37 17 42 56 16 132 -56 160 -179 297 -362 399 -39 22 -58
28 -66 20z"/>
<path d="M1347 5871 c-145 -85 -244 -187 -308 -316 -52 -105 -58 -171 -17
-194 25 -14 28 -13 66 12 65 45 150 137 208 223 53 80 139 250 146 289 5 32
-23 28 -95 -14z"/>
<path d="M1570 5558 c-71 -9 -175 -46 -246 -89 -87 -53 -181 -154 -190 -206
-4 -25 27 -53 59 -53 45 0 180 57 272 115 89 55 225 184 225 213 0 24 -39 31
-120 20z"/>
<path d="M4710 5542 c0 -25 104 -134 175 -184 138 -98 305 -169 347 -147 37
20 41 47 14 93 -78 134 -273 242 -453 253 -79 5 -83 5 -83 -15z"/>
<path d="M783 5374 c-88 -94 -192 -265 -208 -343 -2 -9 -7 -34 -12 -56 -26
-113 -10 -226 34 -237 36 -8 53 5 97 75 89 143 142 317 162 533 9 97 -3 102
-73 28z"/>
<path d="M5545 5419 c-15 -24 20 -258 56 -376 40 -131 136 -298 175 -306 28
-5 53 14 63 50 9 31 7 137 -3 191 -24 125 -112 286 -219 400 -52 54 -61 59
-72 41z"/>
<path d="M3110 5337 c-19 -7 -62 -31 -95 -53 -136 -92 -286 -159 -442 -199
-155 -39 -269 -45 -543 -31 -128 7 -202 -8 -304 -62 -141 -74 -250 -222 -279
-379 -18 -93 -16 -1438 2 -1563 72 -515 307 -974 663 -1295 133 -119 145 -129
257 -205 259 -173 636 -319 828 -320 66 0 235 40 363 85 175 62 403 186 550
299 126 97 209 172 305 278 262 290 443 661 509 1043 9 50 19 106 22 125 4 19
8 367 10 772 3 811 3 800 -59 927 -37 77 -147 193 -217 230 -129 67 -178 73
-476 59 -293 -13 -553 59 -819 230 -38 24 -87 51 -108 58 -48 17 -120 17 -167
1z m180 -155 c14 -5 56 -31 95 -57 38 -26 96 -60 128 -76 67 -34 216 -86 273
-95 21 -3 42 -8 46 -10 3 -2 30 -7 60 -10 29 -3 64 -7 78 -10 35 -6 219 -6
229 0 16 11 198 13 255 5 163 -26 302 -152 362 -329 18 -52 19 -96 19 -720 -1
-592 -5 -777 -19 -845 -2 -11 -7 -45 -11 -75 -4 -30 -22 -110 -41 -177 -175
-642 -663 -1149 -1301 -1354 -95 -31 -213 -59 -248 -59 -20 0 -20 6 -18 1903
0 1046 2 1909 2 1918 1 14 7 15 34 9 17 -4 43 -12 57 -18z m-330 -630 c71 -6
72 -9 31 -54 -36 -37 -38 -43 -29 -75 16 -59 9 -67 -41 -40 l-44 24 -45 -24
c-24 -13 -46 -22 -48 -20 -2 2 0 25 5 50 8 46 7 48 -30 86 -42 41 -38 51 19
51 37 0 46 8 72 60 l23 44 26 -50 c23 -43 30 -50 61 -52z m-565 -274 c21 -41
28 -45 93 -50 17 -1 32 -3 32 -5 0 -2 -18 -21 -40 -43 -22 -22 -38 -45 -35
-52 8 -25 13 -88 6 -88 -3 0 -24 11 -47 24 l-41 23 -39 -23 c-21 -13 -43 -24
-47 -24 -5 0 -6 24 -2 53 6 50 5 54 -30 90 -38 40 -36 43 28 50 45 6 39 1 66
55 25 49 27 48 56 -10z m188 -377 c4 -1 7 -12 7 -26 0 -24 3 -25 60 -25 33 0
61 -3 61 -7 1 -5 2 -29 3 -55 l2 -48 -63 0 -63 0 0 -30 c0 -16 3 -30 8 -31 4
0 30 -1 57 -2 28 0 52 -4 55 -8 3 -4 5 -130 5 -281 l0 -273 -63 -3 c-61 -3
-62 -3 -62 -32 0 -30 0 -30 60 -30 41 0 60 -4 61 -12 1 -7 2 -32 3 -55 l1 -43
-62 0 -62 0 -3 -37 c-2 -30 -7 -37 -25 -38 -24 -2 -26 3 -23 48 2 27 1 27 -64
27 l-66 0 0 55 0 55 63 0 64 0 1 30 1 30 -65 0 -64 0 0 283 0 283 53 -1 c70
-1 77 2 77 36 l0 29 -65 0 -65 0 0 55 0 55 65 0 65 0 0 29 c0 22 4 28 18 26 9
-2 20 -4 25 -4z m359 -28 c-3 -20 1 -23 32 -23 35 0 41 7 37 38 -2 9 7 12 26
10 28 -3 28 -4 28 -76 1 -40 -3 -75 -7 -78 -4 -3 -32 -6 -63 -6 -55 -2 -55 -2
-55 -33 l0 -32 53 2 c28 1 57 0 62 -2 7 -2 11 -135 11 -403 l0 -400 -27 0 -27
0 0 108 c0 59 -1 113 -1 120 -1 7 -15 12 -37 12 l-35 0 1 -72 c3 -168 3 -173
-25 -174 l-25 -2 0 124 0 124 -35 0 c-40 0 -37 12 -37 -152 l-1 -88 -26 0 -26
0 0 400 c0 220 3 401 7 401 5 1 32 2 61 3 51 1 52 2 55 33 l3 32 -63 3 -63 3
0 50 0 50 63 3 c59 3 62 4 62 28 0 22 4 25 28 22 22 -2 26 -7 24 -25z m-855
-117 c20 -41 24 -44 72 -50 28 -4 51 -10 51 -14 0 -5 -15 -23 -34 -41 -35 -34
-36 -37 -20 -114 l6 -28 -52 26 -51 26 -46 -27 -45 -26 7 58 c6 58 6 60 -30
94 l-36 35 53 10 c49 9 54 13 72 53 11 23 22 42 26 42 3 0 16 -20 27 -44z m90
-662 c29 -3 53 -8 53 -9 0 -1 -18 -21 -40 -42 -37 -37 -39 -42 -30 -74 20 -68
15 -73 -35 -44 l-46 25 -49 -25 -50 -25 6 58 c6 56 5 59 -25 84 -17 15 -31 31
-31 36 0 6 22 13 49 17 46 6 49 9 72 57 l23 50 25 -51 c24 -49 26 -50 78 -57z
m244 -453 c20 -48 22 -49 76 -57 l56 -9 -41 -42 c-38 -39 -40 -44 -31 -75 19
-67 14 -72 -38 -43 l-46 26 -49 -26 c-52 -28 -54 -27 -39 39 9 36 7 41 -30 81
l-39 43 54 6 c53 7 54 8 77 57 13 27 25 49 26 49 1 0 12 -22 24 -49z m519
-308 c22 -41 30 -48 60 -50 64 -7 66 -11 26 -52 -38 -39 -38 -39 -28 -87 6
-27 9 -50 7 -52 -2 -2 -25 7 -52 21 l-48 24 -40 -23 c-22 -13 -43 -24 -46 -24
-3 0 -2 23 4 51 10 50 10 50 -28 89 -41 42 -41 41 36 54 31 6 39 12 55 51 10
25 21 45 24 45 3 0 16 -21 30 -47z"/>
<path d="M3453 4596 c-20 -41 -24 -44 -74 -50 l-52 -7 41 -40 c37 -37 39 -43
31 -72 -19 -66 -15 -70 39 -43 l49 25 42 -25 c24 -13 44 -24 46 -24 1 0 -2 23
-7 51 -9 51 -9 52 28 90 21 22 36 39 34 40 -3 0 -18 3 -35 5 -64 9 -72 14 -90
54 -10 22 -21 40 -25 40 -3 0 -16 -20 -27 -44z"/>
<path d="M3990 4308 c-22 -48 -38 -59 -90 -60 -16 -1 -30 -4 -30 -9 0 -4 16
-23 35 -42 19 -19 33 -41 31 -49 -3 -7 -7 -30 -10 -50 l-6 -37 46 25 45 25 49
-25 48 -25 -4 32 c-3 18 -7 41 -9 53 -3 14 6 31 30 54 19 19 35 37 35 40 0 3
-19 7 -42 9 -53 3 -54 3 -82 59 l-24 47 -22 -47z"/>
<path d="M3460 3816 c0 -126 -22 -164 -106 -185 l-44 -11 0 -61 c0 -53 2 -60
18 -56 9 3 33 8 52 11 l35 6 0 -323 0 -322 25 -1 c14 -1 30 2 35 6 6 5 10 132
9 347 -1 327 0 339 20 368 18 26 21 48 24 167 l4 138 -36 0 -36 0 0 -84z"/>
<path d="M3602 3785 l3 -60 202 0 c225 0 210 -6 208 75 l0 45 -208 0 -208 0 3
-60z"/>
<path d="M4290 3803 c-14 -27 -32 -49 -40 -50 -8 -1 -32 -4 -53 -8 l-38 -6 40
-35 c25 -22 38 -42 36 -53 -2 -10 -6 -35 -9 -54 l-6 -36 28 11 c15 7 36 18 46
24 16 11 27 9 68 -12 l49 -25 -6 38 c-4 21 -9 45 -11 54 -3 10 10 28 32 47 41
35 38 52 -11 52 -38 0 -62 19 -82 67 -7 18 -14 33 -16 33 -1 0 -13 -21 -27
-47z"/>
<path d="M4306 3199 c-19 -42 -43 -57 -96 -61 -17 -1 -30 -5 -30 -8 0 -4 16
-19 36 -35 35 -28 35 -30 29 -81 -6 -58 -3 -60 53 -30 33 17 34 17 79 -9 l46
-25 -7 56 c-6 55 -6 57 30 91 20 18 35 35 33 37 -3 3 -70 15 -91 16 -4 0 -17
18 -28 39 -11 22 -24 42 -28 45 -5 3 -17 -13 -26 -35z"/>
<path d="M3602 2966 l3 -61 203 0 c127 0 202 4 203 10 4 41 4 105 -1 106 -3 1
-96 2 -208 3 l-203 2 3 -60z"/>
<path d="M4019 2668 c-19 -41 -28 -49 -58 -54 -73 -12 -73 -12 -35 -47 36 -31
36 -32 30 -89 l-7 -59 49 26 49 25 46 -26 47 -26 -6 34 c-3 18 -7 42 -9 54 -3
14 7 32 30 54 19 19 35 38 35 42 0 4 -17 8 -38 8 -46 0 -64 13 -90 65 l-20 40
-23 -47z"/>
<path d="M3508 2345 c-20 -42 -25 -45 -70 -51 -26 -4 -48 -10 -48 -13 0 -4 16
-22 35 -41 20 -20 33 -41 30 -49 -8 -30 -15 -81 -10 -81 2 0 24 10 48 21 l44
22 47 -28 c27 -16 44 -22 42 -13 -3 7 -7 32 -10 56 -5 39 -3 46 29 75 43 39
44 47 6 47 -52 0 -77 16 -95 59 -8 23 -18 41 -21 41 -3 0 -15 -20 -27 -45z"/>
<path d="M2469 3563 c-1 -4 -3 -32 -4 -61 l-2 -53 36 3 36 3 2 56 1 55 -34 2
c-19 2 -35 -1 -35 -5z"/>
<path d="M2590 3508 l0 -58 35 0 35 0 0 60 0 61 -35 -3 -35 -2 0 -58z"/>
<path d="M2467 3333 c-2 -5 -3 -30 -3 -58 l1 -50 37 -1 36 -1 0 58 -1 59 -33
0 c-18 0 -35 -3 -37 -7z"/>
<path d="M2590 3280 l0 -60 35 0 35 0 0 60 0 60 -35 0 -35 0 0 -60z"/>
<path d="M2819 3553 c0 -7 -1 -26 -1 -43 0 -59 1 -60 37 -60 l35 0 0 60 0 59
-35 -1 c-21 -1 -35 -6 -36 -15z"/>
<path d="M2945 3561 c-3 -2 -5 -28 -5 -58 l0 -53 35 0 c36 0 37 2 37 60 0 58
-1 60 -32 58 -17 -1 -33 -4 -35 -7z"/>
<path d="M2819 3325 c-5 -99 -5 -100 34 -103 l37 -3 0 60 0 61 -35 0 c-24 0
-35 -5 -36 -15z"/>
<path d="M2942 3283 c3 -57 3 -58 36 -61 30 -3 32 -1 33 27 1 17 1 43 2 59 1
24 -3 27 -36 30 l-38 3 3 -58z"/>
<path d="M1146 5038 c-59 -11 -177 -64 -238 -106 -95 -66 -182 -170 -194 -232
-8 -36 17 -70 50 -70 102 1 390 210 481 347 46 70 22 85 -99 61z"/>
<path d="M5134 5035 c-15 -37 119 -186 251 -280 90 -64 150 -97 212 -115 36
-11 46 -11 68 4 34 22 32 51 -8 117 -80 132 -253 249 -416 279 -74 14 -101 13
-107 -5z"/>
<path d="M350 4747 c-22 -38 -48 -92 -85 -182 -73 -172 -56 -474 28 -530 63
-41 112 54 142 270 27 197 -1 485 -47 485 -7 0 -24 -19 -38 -43z"/>
<path d="M5991 4771 c-21 -39 -38 -164 -39 -284 -1 -134 24 -298 58 -390 46
-124 129 -83 159 78 32 171 -13 387 -115 559 -34 57 -48 65 -63 37z"/>
<path d="M5476 4472 c-11 -10 -6 -31 20 -89 76 -166 233 -356 348 -423 46 -27
52 -28 77 -14 34 17 38 36 23 95 -37 147 -195 333 -339 400 -60 28 -119 42
-129 31z"/>
<path d="M838 4456 c-169 -60 -366 -289 -385 -446 -5 -43 -3 -49 20 -65 25
-16 28 -16 73 6 49 25 158 125 216 199 77 99 168 263 168 303 0 21 -38 22 -92
3z"/>
<path d="M63 4038 c-10 -12 -14 -25 -28 -98 -3 -14 -8 -69 -11 -122 -13 -213
46 -426 146 -528 46 -47 81 -52 105 -16 35 54 5 317 -60 517 -48 150 -127 278
-152 247z"/>
<path d="M6287 4018 c-98 -130 -183 -447 -180 -666 1 -59 5 -77 20 -88 32 -24
59 -16 103 32 115 125 169 375 134 616 -14 97 -27 138 -43 138 -6 0 -21 -15
-34 -32z"/>
<path d="M671 3847 c-53 -27 -135 -104 -180 -170 -65 -96 -120 -252 -116 -332
1 -16 3 -42 3 -57 2 -33 26 -58 56 -58 26 0 97 71 141 140 72 114 131 262 161
403 22 104 13 114 -65 74z"/>
<path d="M5655 3860 c-15 -24 27 -196 77 -313 57 -135 124 -239 187 -294 58
-50 105 -15 104 75 -1 77 -9 120 -34 189 -52 137 -152 266 -252 323 -55 32
-72 36 -82 20z"/>
<path d="M4 3214 c-17 -65 13 -266 57 -395 56 -160 201 -339 276 -339 12 0 32
9 44 21 17 17 20 29 15 68 -15 126 -121 365 -229 518 -105 147 -149 182 -163
127z"/>
<path d="M6320 3198 c-131 -138 -296 -463 -315 -624 -5 -41 -3 -53 15 -71 39
-43 73 -32 153 50 82 83 131 167 176 303 35 107 47 182 47 294 -1 104 -15 112
-76 48z"/>
<path d="M638 3158 c-116 -135 -168 -278 -164 -457 3 -162 44 -233 113 -199
44 22 109 170 128 288 3 19 9 60 14 90 5 30 9 114 9 185 0 180 -14 192 -100
93z"/>
<path d="M5673 3208 c-11 -19 -13 -251 -2 -333 22 -173 87 -343 140 -371 28
-14 33 -14 56 1 40 26 56 79 60 190 5 175 -55 344 -164 464 -55 61 -75 72 -90
49z"/>
<path d="M5508 2527 c-14 -10 -29 -63 -54 -182 -17 -82 -23 -264 -12 -345 8
-52 32 -125 54 -157 19 -30 64 -30 91 0 70 75 106 285 74 427 -15 66 -91 228
-118 253 -16 14 -22 15 -35 4z"/>
<path d="M827 2485 c-109 -172 -139 -356 -83 -515 36 -103 69 -150 106 -150
42 0 66 31 87 113 25 101 23 286 -6 435 -12 62 -26 124 -31 137 -14 38 -42 30
-73 -20z"/>
<path d="M113 2405 c-8 -22 32 -136 83 -235 107 -208 296 -374 428 -375 44 0
52 3 65 26 14 25 13 31 -5 70 -25 58 -112 178 -177 247 -67 70 -170 154 -277
225 -90 60 -107 66 -117 42z"/>
<path d="M6191 2379 c-202 -128 -352 -273 -450 -438 -51 -84 -53 -98 -22 -135
13 -15 25 -17 68 -12 140 16 343 211 436 417 42 91 70 178 64 194 -9 23 -26
19 -96 -26z"/>
<path d="M1142 1988 c-31 -38 -55 -145 -55 -248 0 -165 47 -305 136 -403 49
-55 83 -66 116 -40 20 16 23 29 26 100 4 144 -53 360 -137 518 -43 79 -65 98
-86 73z"/>
<path d="M5214 1992 c-33 -22 -122 -225 -154 -352 -27 -106 -33 -154 -32 -240
1 -57 6 -78 20 -92 29 -29 65 -31 94 -5 104 95 168 256 168 426 0 91 -8 133
-42 219 -20 50 -31 60 -54 44z"/>
<path d="M394 1687 c-16 -43 123 -208 268 -317 133 -101 267 -151 383 -144 86
5 111 64 53 126 -136 144 -466 320 -645 344 -43 5 -54 4 -59 -9z"/>
<path d="M5937 1694 c-1 -1 -19 -5 -40 -8 -138 -22 -420 -173 -570 -306 -56
-50 -68 -74 -55 -111 13 -37 45 -48 125 -44 133 6 314 103 454 244 93 92 164
198 148 217 -9 11 -53 16 -62 8z"/>
<path d="M1551 1507 c-20 -113 5 -248 70 -379 39 -81 79 -136 137 -190 76 -71
131 -76 157 -14 16 39 0 128 -41 234 -36 91 -151 278 -209 338 -5 6 -21 25
-35 42 -14 18 -34 32 -46 32 -19 0 -23 -9 -33 -63z"/>
<path d="M4754 1526 c-133 -159 -230 -329 -264 -461 -26 -103 -26 -130 5 -160
32 -33 58 -31 112 7 159 115 282 442 232 621 -14 50 -39 48 -85 -7z"/>
<path d="M2100 1252 c-25 -9 -29 -24 -25 -97 2 -46 14 -100 34 -153 80 -220
239 -379 408 -408 93 -16 326 -91 496 -159 l68 -28 -119 -51 c-195 -86 -412
-217 -412 -249 1 -12 66 -87 75 -87 3 0 33 22 68 48 34 27 100 71 147 99 97
58 343 183 359 183 16 0 235 -111 332 -168 46 -28 119 -75 163 -106 87 -63 88
-63 137 6 20 27 20 27 1 46 -58 58 -254 169 -420 238 l-92 38 32 16 c101 48
402 149 503 169 92 19 126 31 175 65 153 104 283 325 293 497 5 79 1 96 -25
102 -20 6 -92 -56 -210 -179 -108 -113 -194 -258 -219 -369 l-12 -53 -151 -42
c-83 -24 -232 -69 -330 -101 l-180 -58 -130 44 c-109 36 -324 100 -487 145
-33 9 -37 14 -53 72 -40 145 -131 284 -278 423 -120 114 -131 123 -148 117z"/>
<path d="M5305 1058 c-211 -17 -422 -76 -572 -161 -85 -48 -102 -76 -76 -129
15 -31 57 -46 151 -54 159 -14 427 93 600 240 67 57 78 72 62 91 -14 17 -66
22 -165 13z"/>
<path d="M933 1049 c-18 -19 -17 -25 17 -59 138 -141 424 -272 595 -273 170
-1 230 34 202 118 -17 51 -269 159 -451 195 -28 5 -62 12 -76 15 -14 4 -81 9
-150 12 -95 4 -128 2 -137 -8z"/>
<path d="M1948 615 c-2 -2 -39 -6 -83 -10 -87 -7 -250 -46 -267 -63 -27 -27
28 -65 168 -115 222 -80 460 -84 610 -11 60 28 71 39 78 76 9 51 -37 83 -144
103 -84 16 -351 30 -362 20z"/>
<path d="M4205 609 c-175 -19 -247 -45 -259 -94 -10 -40 16 -72 86 -105 172
-81 451 -58 709 59 26 11 52 28 60 37 11 14 10 19 -9 34 -26 21 -123 46 -256
65 -66 9 -255 11 -331 4z"/>
</g>
</svg>
